<svg width="16" height="14" viewBox="0 0 16 14" fill="none" xmlns="http://www.w3.org/2000/svg">
<path d="M0.0159768 13.984H3.012V3.99793H0.0159768V13.984ZM11.688 3.65202C10.234 3.65202 8.93299 4.18301 8.01007 5.35506V3.96508H5.00306V13.9841H8.01007V8.56606C8.01007 7.42103 9.05909 6.30402 10.3731 6.30402C11.687 6.30402 12.0111 7.42103 12.0111 8.53805V13.9831H15.0071V8.31506C15.007 4.37799 13.143 3.65202 11.688 3.65202ZM1.49999 2.99998C2.328 2.99998 3.00003 2.32795 3.00003 1.49994C3.00003 0.671923 2.328 0 1.49999 0C0.671972 0 -6.10352e-05 0.672033 -6.10352e-05 1.50005C-6.10352e-05 2.32806 0.671972 2.99998 1.49999 2.99998Z" fill="#444444"/>
</svg>
